<svg data-v-0dd9719b="" version="1.0" xmlns="http://www.w3.org/2000/svg" xmlns:xlink="http://www.w3.org/1999/xlink" width="100%" height="100%" viewBox="0 0 340.000000 250.000000" preserveAspectRatio="xMidYMid meet" color-interpolation-filters="sRGB" style="margin: auto;"> <rect data-v-0dd9719b="" x="0" y="0" width="100%" height="100%" fill="#fff" fill-opacity="1" class="background"></rect> <rect data-v-0dd9719b="" x="0" y="0" width="100%" height="100%" fill="url(#watermark)" fill-opacity="1" class="watermarklayer"></rect> <g data-v-0dd9719b="" fill="#f86b96" class="icon-text-wrapper icon-svg-group iconsvg" transform="translate(77.05995178222656,94.61786460876465)"><g class="iconsvg-imagesvg" transform="translate(0,0.10418128967285156)"><g><rect fill="#f86b96" fill-opacity="0" stroke-width="2" x="0" y="0" width="60" height="60.555903191296096" class="image-rect"></rect> <svg x="0" y="0" width="60" height="60.555903191296096" filtersec="colorsb6400450661" class="image-svg-svg primary" style="overflow: visible;"><svg xmlns="http://www.w3.org/2000/svg" viewBox="0 0.0022959336638450623 171.6312713623047 173.2210693359375"><title>资源 73</title><g><g><path d="M86.67 86.62q-21 41.46-42.05 82.92c-.81 1.61-1.25 3.6-3.77 3.59H.09l43.35-86.28.64-.34 42.63-.05z" fill="#f86b96"></path><path d="M86.67 86.62v-.16q14.44-28.95 28.92-57.89c4.12-8.22 8.45-16.34 12.46-24.62 1.33-2.75 3-3.76 6.05-3.71 11.47.19 22.95.12 34.43 0 2.72 0 4 .39 2.4 3.44q-21.13 41.71-42.16 83.43l.12-.06z" fill="#feb500"></path><path d="M44.08 86.51a1 1 0 0 1-.64.34C29.12 58.32 14.8 29.8 0 .3c11.23 0 21.7.64 32-.2 8.25-.67 12.52 2.06 15.7 9.61C52.2 20.43 57.94 30.63 63.3 41a7 7 0 0 1 .09 7.28c-6.6 12.65-12.91 25.47-19.31 38.23z" fill="#ab65ee"></path><path d="M128.77 87.11c1.43.54 1.61 2 2.17 3.11q19.49 38.73 38.87 77.49c2.7 5.39 2.67 5.42-3.52 5.43-10.53 0-21.06-.14-31.59.08-3.45.07-5.39-.94-6.95-4.15-6-12.31-12.25-24.5-18.53-36.67-1.12-2.17-1.51-3.94-.3-6.26 6.74-13 13.33-26 20-39.09z" fill="#50ccf8"></path></g></g></svg></svg> <!----></g></g> <g transform="translate(67,0)"><g data-gra="path-name" fill-rule="" class="tp-name iconsvg-namesvg"><g transform="scale(1)"><g><path d="M0.46 0L16.48-23.92 1.1-46.57 7.38-46.57Q8.06-46.57 8.38-46.34 8.71-46.12 8.97-45.7L8.97-45.7 21.13-27.04Q21.35-27.72 21.81-28.54L21.81-28.54 33.28-45.57Q33.57-46.02 33.91-46.3 34.26-46.57 34.74-46.57L34.74-46.57 40.76-46.57 25.32-24.21 41.27 0 35.04 0Q34.32 0 33.91-0.37 33.51-0.75 33.25-1.2L33.25-1.2 20.77-20.73Q20.54-20.05 20.18-19.44L20.18-19.44 8.03-1.2Q7.74-0.75 7.36-0.37 6.99 0 6.31 0L6.31 0 0.46 0ZM59.15-19.44L54.37-19.44 54.37 0 48.1 0 48.1-46.57 61.26-46.57Q65.68-46.57 68.9-45.68 72.12-44.79 74.21-43.09 76.31-41.41 77.32-39.02 78.33-36.63 78.33-33.67L78.33-33.67Q78.33-31.2 77.55-29.05 76.77-26.91 75.29-25.2 73.81-23.5 71.68-22.3 69.55-21.09 66.85-20.48L66.85-20.48Q68.02-19.79 68.93-18.49L68.93-18.49 82.52 0 76.93 0Q75.21 0 74.39-1.33L74.39-1.33 62.3-17.97Q61.75-18.75 61.1-19.09 60.45-19.44 59.15-19.44L59.15-19.44ZM54.37-41.6L54.37-24.02 60.97-24.02Q63.73-24.02 65.83-24.68 67.93-25.35 69.34-26.57 70.75-27.79 71.47-29.48 72.18-31.17 72.18-33.22L72.18-33.22Q72.18-37.38 69.44-39.49 66.69-41.6 61.26-41.6L61.26-41.6 54.37-41.6ZM82.88-46.57L119.34-46.57 119.34-41.27 104.29-41.27 104.29 0 97.99 0 97.99-41.27 82.88-41.27 82.88-46.57Z" transform="translate(-0.46000000834465027, 46.56999969482422)"></path></g> <!----> <!----> <!----> <!----> <!----> <!----> <g data-gra="path-name-1" fill="#f86b96" transform="translate(0,49.56999969482422)"><g transform="scale(1.00397)"><path d="M3.08-10.92L3.08 0 1.6 0 1.6-10.92 3.08-10.92ZM6.77-10.92L6.77-10.92Q6.97-10.92 7.06-10.87 7.16-10.82 7.28-10.67L7.28-10.67 13.6-2.44Q13.58-2.64 13.57-2.82 13.57-3.01 13.57-3.19L13.57-3.19 13.57-10.92 14.86-10.92 14.86 0 14.12 0Q13.94 0 13.82-0.06 13.7-0.12 13.59-0.27L13.59-0.27 7.27-8.49Q7.29-8.3 7.29-8.12 7.3-7.93 7.3-7.78L7.3-7.78 7.3 0 6.01 0 6.01-10.92 6.77-10.92ZM16.42-10.92L24.97-10.92 24.97-9.68 21.44-9.68 21.44 0 19.96 0 19.96-9.68 16.42-9.68 16.42-10.92ZM26.52-10.92L33.25-10.92 33.25-9.72 28.01-9.72 28.01-6.09 32.25-6.09 32.25-4.93 28.01-4.93 28.01-1.2 33.25-1.2 33.25 0 26.52 0 26.52-10.92ZM38.12-4.56L37-4.56 37 0 35.53 0 35.53-10.92 38.62-10.92Q39.66-10.92 40.41-10.71 41.16-10.5 41.66-10.11 42.15-9.71 42.38-9.15 42.62-8.59 42.62-7.9L42.62-7.9Q42.62-7.32 42.44-6.81 42.25-6.31 41.91-5.91 41.56-5.51 41.06-5.23 40.56-4.95 39.93-4.8L39.93-4.8Q40.2-4.64 40.42-4.34L40.42-4.34 43.6 0 42.29 0Q41.89 0 41.7-0.31L41.7-0.31 38.86-4.21Q38.73-4.4 38.58-4.48 38.43-4.56 38.12-4.56L38.12-4.56ZM37-9.76L37-5.63 38.55-5.63Q39.2-5.63 39.69-5.79 40.18-5.94 40.51-6.23 40.84-6.52 41.01-6.91 41.18-7.31 41.18-7.79L41.18-7.79Q41.18-8.76 40.54-9.26 39.89-9.76 38.62-9.76L38.62-9.76 37-9.76ZM45.96-10.92L45.96-10.92Q46.16-10.92 46.25-10.87 46.35-10.82 46.47-10.67L46.47-10.67 52.8-2.44Q52.77-2.64 52.76-2.82 52.76-3.01 52.76-3.19L52.76-3.19 52.76-10.92 54.05-10.92 54.05 0 53.31 0Q53.13 0 53.01-0.06 52.89-0.12 52.78-0.27L52.78-0.27 46.46-8.49Q46.48-8.3 46.48-8.12 46.49-7.93 46.49-7.78L46.49-7.78 46.49 0 45.2 0 45.2-10.92 45.96-10.92ZM61.34-10.92L65.71 0 64.56 0Q64.36 0 64.24-0.1 64.12-0.2 64.06-0.35L64.06-0.35 63.04-2.99 58.14-2.99 57.12-0.35Q57.06-0.21 56.93-0.11 56.8 0 56.61 0L56.61 0 55.47 0 59.84-10.92 61.34-10.92ZM60.26-8.49L58.55-4.05 62.63-4.05 60.91-8.5Q60.74-8.91 60.58-9.53L60.58-9.53Q60.5-9.21 60.42-8.95 60.34-8.69 60.26-8.49L60.26-8.49ZM64.97-10.92L73.52-10.92 73.52-9.68 69.99-9.68 69.99 0 68.51 0 68.51-9.68 64.97-9.68 64.97-10.92ZM76.83-10.92L76.83 0 75.35 0 75.35-10.92 76.83-10.92ZM89.9-5.46L89.9-5.46Q89.9-4.23 89.51-3.2 89.12-2.18 88.41-1.44 87.7-0.7 86.71-0.29 85.71 0.11 84.51 0.11L84.51 0.11Q83.3 0.11 82.31-0.29 81.32-0.7 80.61-1.44 79.91-2.18 79.52-3.2 79.13-4.23 79.13-5.46L79.13-5.46Q79.13-6.68 79.52-7.71 79.91-8.73 80.61-9.48 81.32-10.22 82.31-10.63 83.3-11.04 84.51-11.04L84.51-11.04Q85.71-11.04 86.71-10.63 87.7-10.22 88.41-9.48 89.12-8.73 89.51-7.71 89.9-6.68 89.9-5.46ZM88.38-5.46L88.38-5.46Q88.38-6.46 88.11-7.26 87.83-8.06 87.33-8.62 86.83-9.17 86.11-9.47 85.39-9.76 84.51-9.76L84.51-9.76Q83.63-9.76 82.92-9.47 82.2-9.17 81.69-8.62 81.19-8.06 80.91-7.26 80.64-6.46 80.64-5.46L80.64-5.46Q80.64-4.45 80.91-3.65 81.19-2.86 81.69-2.31 82.2-1.75 82.92-1.46 83.63-1.17 84.51-1.17L84.51-1.17Q85.39-1.17 86.11-1.46 86.83-1.75 87.33-2.31 87.83-2.86 88.11-3.65 88.38-4.45 88.38-5.46ZM92.68-10.92L92.68-10.92Q92.88-10.92 92.97-10.87 93.07-10.82 93.19-10.67L93.19-10.67 99.52-2.44Q99.49-2.64 99.49-2.82 99.48-3.01 99.48-3.19L99.48-3.19 99.48-10.92 100.77-10.92 100.77 0 100.03 0Q99.85 0 99.73-0.06 99.61-0.12 99.5-0.27L99.5-0.27 93.18-8.49Q93.2-8.3 93.2-8.12 93.21-7.93 93.21-7.78L93.21-7.78 93.21 0 91.92 0 91.92-10.92 92.68-10.92ZM108.06-10.92L112.43 0 111.28 0Q111.09 0 110.96-0.1 110.84-0.2 110.78-0.35L110.78-0.35 109.76-2.99 104.86-2.99 103.84-0.35Q103.78-0.21 103.65-0.11 103.52 0 103.33 0L103.33 0 102.19 0 106.56-10.92 108.06-10.92ZM106.98-8.49L105.27-4.05 109.35-4.05 107.63-8.5Q107.46-8.91 107.3-9.53L107.3-9.53Q107.22-9.21 107.14-8.95 107.06-8.69 106.98-8.49L106.98-8.49ZM115.28-10.92L115.28-1.24 120.01-1.24 120.01 0 113.81 0 113.81-10.92 115.28-10.92Z" transform="translate(-1.600000023841858, 11.039999961853027)"></path></g></g></g></g> <!----></g></g><defs v-gra="od"></defs></svg>